<svg width="40" height="40" viewBox="0 0 40 40" fill="none" xmlns="http://www.w3.org/2000/svg">
<path d="M20.1483 20L19.9824 36.0641" stroke="#961914" stroke-width="2" stroke-linecap="round" stroke-linejoin="round"/>
<path d="M34.3574 27.3956V12.6043C34.3574 12.3829 34.2986 12.1655 34.1871 11.9743C34.0755 11.7831 33.9152 11.625 33.7225 11.5161L20.5975 4.09759C20.4098 3.99153 20.198 3.93579 19.9824 3.93579C19.7669 3.93579 19.555 3.99153 19.3673 4.09759L6.24235 11.5161C6.04964 11.625 5.88932 11.7831 5.77776 11.9743C5.6662 12.1655 5.60742 12.3829 5.60742 12.6043V27.3956C5.60742 27.617 5.6662 27.8344 5.77776 28.0256C5.88931 28.2167 6.04964 28.3749 6.24235 28.4838L19.3673 35.9023C19.555 36.0084 19.7669 36.0641 19.9824 36.0641C20.198 36.0641 20.4098 36.0084 20.5975 35.9023L33.7225 28.4838C33.9152 28.3749 34.0755 28.2167 34.1871 28.0256C34.2986 27.8344 34.3574 27.617 34.3574 27.3956V27.3956Z" stroke="#961914" stroke-width="2" stroke-linecap="round" stroke-linejoin="round"/>
<path d="M34.1863 11.9729L20.1483 19.9999L5.77972 11.9712" stroke="#961914" stroke-width="2" stroke-linecap="round" stroke-linejoin="round"/>
<path d="M27.6597 23.2048V15.7048L13.163 7.60449" stroke="#961914" stroke-width="2" stroke-linecap="round" stroke-linejoin="round"/>
</svg>
