<svg width="166" height="548" viewBox="0 0 166 548" fill="none" xmlns="http://www.w3.org/2000/svg">
<path opacity="0.6" fill-rule="evenodd" clip-rule="evenodd" d="M163.643 548L141.284 548L28.307 508.823L28.307 546.201L2.57545 546.201L2.57545 471.25L23.5596 471.25L137.911 511.026L137.911 470.851L163.643 470.851L163.643 548ZM138.894 512.423L23.3964 472.25L3.55757 472.25L3.55757 545.202L27.3249 545.202L27.3249 507.427L141.447 547.001L162.661 547.001L162.661 471.85L138.894 471.85L138.894 512.423ZM36.1513 394.922L36.1432 394.924C33.4147 395.428 31.2385 396.489 29.5645 398.07C28.0092 399.54 27.1284 401.949 27.1284 405.533C27.1284 408.823 27.9957 411.113 29.5645 412.595C31.2385 414.177 33.4147 415.237 36.1432 415.742L36.1513 415.744C38.8338 416.264 41.7181 416.525 44.8066 416.525L121.412 416.525C124.373 416.525 127.268 416.329 130.096 415.938C132.824 415.43 134.998 414.432 136.668 412.982C138.214 411.511 139.09 409.105 139.09 405.533C139.09 401.949 138.209 399.54 136.654 398.07C134.98 396.489 132.804 395.428 130.075 394.924C127.254 394.402 124.366 394.14 121.412 394.14L44.8066 394.14C41.7181 394.14 38.8338 394.402 36.1513 394.922ZM137.322 413.727C135.489 415.326 133.132 416.392 130.251 416.925C127.37 417.325 124.424 417.525 121.412 417.525L44.8066 417.525C41.6638 417.525 38.7174 417.258 35.9675 416.725C33.0866 416.192 30.7295 415.06 28.8962 413.328C27.0629 411.595 26.1463 408.997 26.1463 405.533C26.1463 401.802 27.0629 399.07 28.8962 397.338C30.7295 395.606 33.0866 394.473 35.9675 393.94C38.7174 393.407 41.6638 393.141 44.8066 393.141L121.412 393.141C124.424 393.141 127.37 393.407 130.251 393.94C133.132 394.473 135.489 395.606 137.322 397.338C139.155 399.07 140.072 401.802 140.072 405.533C140.072 409.264 139.155 411.995 137.322 413.727ZM166 405.533C166 417.76 163.89 427.556 159.573 434.83C155.265 442.09 149.066 447.296 141.013 450.437C133.016 453.556 123.528 455.1 112.573 455.1L53.4492 455.1C42.365 455.1 32.874 453.557 25.0039 450.435C17.0808 447.292 11.013 442.084 6.83821 434.824C2.52408 427.55 0.414789 417.757 0.414789 405.533C0.414788 393.18 2.52255 383.32 6.83606 376.045C11.0089 368.653 17.0763 363.375 25.0039 360.231C32.874 357.109 42.365 355.566 53.4492 355.566L112.573 355.566C123.528 355.566 133.016 357.11 141.013 360.229C149.07 363.371 155.269 368.647 159.575 376.039C163.891 383.314 166 393.177 166 405.533ZM158.732 376.552C154.542 369.356 148.518 364.227 140.661 361.162C132.804 358.097 123.442 356.565 112.573 356.565L53.4492 356.565C42.4495 356.565 33.0866 358.097 25.3606 361.162C17.6346 364.227 11.7419 369.356 7.68247 376.552C3.49209 383.614 1.39691 393.274 1.39691 405.533C1.39691 417.658 3.4921 427.252 7.68247 434.314C11.7419 441.376 17.6346 446.439 25.3606 449.504C33.0866 452.568 42.4495 454.101 53.4492 454.101L112.573 454.101C123.442 454.101 132.804 452.568 140.661 449.504C148.518 446.439 154.542 441.376 158.732 434.314C162.923 427.252 165.018 417.658 165.018 405.533C165.018 393.274 162.923 383.614 158.732 376.552ZM36.1512 273.814L36.1432 273.816C33.4147 274.32 31.2385 275.381 29.5645 276.962C28.0092 278.432 27.1284 280.841 27.1284 284.425C27.1284 287.715 27.9957 290.005 29.5645 291.487C31.2385 293.069 33.4147 294.129 36.1432 294.634L36.1513 294.636C38.8338 295.156 41.7181 295.418 44.8065 295.418L121.412 295.418C124.373 295.418 127.268 295.222 130.096 294.83C132.824 294.322 134.998 293.324 136.668 291.874C138.214 290.403 139.09 287.998 139.09 284.425C139.09 280.841 138.209 278.432 136.654 276.962C134.98 275.381 132.804 274.32 130.075 273.816C127.254 273.294 124.366 273.032 121.412 273.032L44.8065 273.032C41.7181 273.032 38.8338 273.294 36.1512 273.814ZM130.251 295.817C127.37 296.217 124.424 296.417 121.412 296.417L44.8065 296.417C41.6638 296.417 38.7174 296.15 35.9675 295.617C33.0866 295.084 30.7295 293.952 28.8962 292.22C27.0629 290.487 26.1463 287.889 26.1463 284.425C26.1463 280.694 27.0629 277.962 28.8962 276.23C30.7295 274.498 33.0866 273.365 35.9675 272.832C38.7174 272.299 41.6638 272.033 44.8065 272.033L121.412 272.033C124.424 272.033 127.37 272.299 130.251 272.832C133.132 273.365 135.489 274.498 137.322 276.23C139.155 277.962 140.072 280.694 140.072 284.425C140.072 288.156 139.155 290.887 137.322 292.619C135.489 294.218 133.132 295.284 130.251 295.817ZM166 284.425C166 296.652 163.89 306.448 159.573 313.722C155.265 320.982 149.066 326.188 141.013 329.329C133.016 332.448 123.528 333.992 112.573 333.992L53.4492 333.992C42.365 333.992 32.874 332.449 25.0039 329.327C17.0809 326.184 11.0132 320.976 6.83835 313.717C2.52412 306.443 0.414784 296.649 0.414784 284.425C0.414783 272.072 2.52262 262.212 6.83628 254.936C11.0091 247.545 17.0764 242.267 25.0039 239.123C32.874 236.001 42.365 234.458 53.4492 234.458L112.573 234.458C123.528 234.458 133.016 236.002 141.013 239.121C149.07 242.263 155.269 247.538 159.575 254.93C163.891 262.206 166 272.068 166 284.425ZM158.732 255.444C154.542 248.249 148.518 243.119 140.661 240.054C132.804 236.989 123.442 235.457 112.573 235.457L53.4492 235.457C42.4495 235.457 33.0866 236.989 25.3606 240.054C17.6346 243.119 11.7419 248.249 7.68246 255.444C3.49209 262.506 1.3969 272.166 1.3969 284.425C1.3969 296.55 3.49209 306.144 7.68246 313.206C11.7419 320.268 17.6346 325.331 25.3606 328.396C33.0866 331.461 42.4495 332.993 53.4492 332.993L112.573 332.993C123.442 332.993 132.804 331.461 140.661 328.396C148.518 325.331 154.542 320.268 158.732 313.206C162.923 306.144 165.018 296.55 165.018 284.425C165.018 272.166 162.923 262.506 158.732 255.444ZM36.1512 152.706L36.1432 152.708C33.4147 153.213 31.2385 154.273 29.5645 155.855C28.0092 157.324 27.1284 159.733 27.1284 163.317C27.1284 166.607 27.9957 168.897 29.5645 170.379C31.2385 171.961 33.4147 173.022 36.1432 173.526L36.1513 173.528C38.8338 174.048 41.7181 174.31 44.8065 174.31L121.412 174.31C124.373 174.31 127.268 174.114 130.096 173.722C132.824 173.215 134.998 172.216 136.668 170.766C138.214 169.295 139.09 166.89 139.09 163.317C139.09 159.733 138.209 157.324 136.654 155.855C134.98 154.273 132.804 153.213 130.075 152.708C127.254 152.186 124.366 151.924 121.412 151.924L44.8065 151.924C41.7181 151.924 38.8338 152.186 36.1512 152.706ZM130.251 174.709C127.37 175.109 124.424 175.309 121.412 175.309L44.8065 175.309C41.6638 175.309 38.7174 175.043 35.9675 174.51C33.0866 173.977 30.7295 172.844 28.8962 171.112C27.0629 169.38 26.1463 166.781 26.1463 163.317C26.1463 159.586 27.0629 156.854 28.8962 155.122C30.7295 153.39 33.0866 152.258 35.9675 151.725C38.7174 151.192 41.6638 150.925 44.8065 150.925L121.412 150.925C124.424 150.925 127.37 151.192 130.251 151.725C133.132 152.258 135.489 153.39 137.322 155.122C139.155 156.854 140.072 159.586 140.072 163.317C140.072 167.048 139.155 169.779 137.322 171.511C135.489 173.11 133.132 174.176 130.251 174.709ZM166 163.317C166 175.544 163.89 185.34 159.573 192.615C155.265 199.875 149.066 205.08 141.013 208.221C133.016 211.34 123.528 212.884 112.573 212.884L53.4492 212.884C42.365 212.884 32.874 211.341 25.0039 208.219C17.0809 205.076 11.0131 199.869 6.83834 192.609C2.52412 185.335 0.414779 175.541 0.414778 163.317C0.414778 150.964 2.52261 141.104 6.83628 133.829C11.0091 126.437 17.0764 121.16 25.0039 118.015C32.874 114.893 42.365 113.35 53.4492 113.35L112.573 113.35C123.528 113.35 133.016 114.894 141.013 118.013C149.07 121.156 155.269 126.43 159.575 133.822C163.891 141.098 166 150.96 166 163.317ZM158.732 134.336C154.542 127.141 148.518 122.011 140.661 118.946C132.804 115.881 123.442 114.349 112.573 114.349L53.4492 114.349C42.4495 114.349 33.0866 115.881 25.3606 118.946C17.6346 122.011 11.7419 127.141 7.68246 134.336C3.49208 141.398 1.3969 151.058 1.3969 163.317C1.3969 175.442 3.49209 185.036 7.68246 192.098C11.7419 199.16 17.6346 204.223 25.3606 207.288C33.0866 210.353 42.4495 211.885 53.4492 211.885L112.573 211.885C123.442 211.885 132.804 210.353 140.661 207.288C148.518 204.223 154.542 199.16 158.732 192.098C162.923 185.036 165.018 175.442 165.018 163.317C165.018 151.058 162.923 141.398 158.732 134.336ZM163.643 69.3895L2.57543 98.9306L2.57543 66.3015L105.085 49.8018L2.57543 34.4401L2.57543 -9.58529e-08L163.643 29.9457L163.643 69.3895ZM111.591 49.7666L3.55755 67.1551L3.55755 97.735L162.661 68.5542L162.661 30.779L3.55755 1.19849L3.55755 33.5772L111.591 49.7666Z" fill="white"/>
</svg>
