<svg width="37" height="39" viewBox="0 0 37 39" fill="none" xmlns="http://www.w3.org/2000/svg">
<g clip-path="url(#clip0_10005_2589)">
<path d="M19.4552 15.42C17.3991 18.6235 15.7175 22.0275 14.3731 25.5724C14.1844 26.1033 15.033 26.2973 15.2217 25.7664C16.5247 22.2886 18.2043 18.9479 20.2191 15.8114C20.5325 15.3474 19.7594 14.941 19.4552 15.42Z" fill="white"/>
<path d="M29.5202 16.2927C31.0252 20.1063 32.2029 24.062 33.0463 28.0816C33.1749 28.6212 34.014 28.3666 33.9003 27.8176C33.0569 23.7981 31.8642 19.8517 30.3743 16.0287C30.1523 15.506 29.3132 15.7606 29.5202 16.2927Z" fill="white"/>
<path d="M11.9098 8.28654C8.16366 9.71337 4.43253 11.1309 0.686441 12.5577C0.166766 12.7578 0.402482 13.6025 0.937126 13.3931C4.68322 11.9663 8.41434 10.5488 12.1604 9.12196C12.6894 8.93675 12.4537 8.092 11.9098 8.28654Z" fill="white"/>
</g>
<defs>
<clipPath id="clip0_10005_2589">
<rect x="36.8125" y="26.353" width="23.9021" height="30.8211" rx="2" transform="rotate(148.054 36.8125 26.353)" fill="white"/>
</clipPath>
</defs>
</svg>
